<?xml version="1.0" encoding="UTF-8"?><svg id="a" xmlns="http://www.w3.org/2000/svg" xmlns:xlink="http://www.w3.org/1999/xlink" viewBox="0 0 123.19 54.69"><defs><style>.e{fill:url(#c);}.f{fill:url(#b);}.g{letter-spacing:-.01em;}.h{fill:#646464;}.i{fill:url(#d);isolation:isolate;opacity:.44;}.j{letter-spacing:0em;}.k{letter-spacing:-.02em;}.l{letter-spacing:0em;}.m{letter-spacing:0em;}.n{fill:#999;font-family:MyriadPro-Regular, Myriad Pro;font-size:12px;}</style><linearGradient id="b" x1="102.88" y1="-667.3" x2="133.36" y2="-641.07" gradientTransform="translate(-58.67 396.98) scale(.56)" gradientUnits="userSpaceOnUse"><stop offset="0" stop-color="#5a9fd4"/><stop offset="1" stop-color="#306998"/></linearGradient><linearGradient id="c" x1="145.12" y1="-625.2" x2="134.23" y2="-640.6" gradientTransform="translate(-58.67 396.98) scale(.56)" gradientUnits="userSpaceOnUse"><stop offset="0" stop-color="#ffd43b"/><stop offset="1" stop-color="#ffe873"/></linearGradient><radialGradient id="d" cx="1317.58" cy="-183.22" fx="1317.58" fy="-183.22" r="8.12" gradientTransform="translate(208.8 368.83) rotate(-90) scale(.24 1.05)" gradientUnits="userSpaceOnUse"><stop offset="0" stop-color="#b8b8b8" stop-opacity=".5"/><stop offset="1" stop-color="#7f7f7f" stop-opacity="0"/></radialGradient></defs><path class="h" d="M50.05,32.57c0-4.07-1.16-6.16-3.48-6.28-.92-.04-1.83,.1-2.7,.44-.7,.25-1.17,.5-1.42,.75v9.72c1.49,.93,2.8,1.36,3.95,1.3,2.43-.16,3.65-2.14,3.65-5.93Zm2.86,.17c0,2.07-.48,3.79-1.46,5.15-1.09,1.55-2.59,2.34-4.52,2.39-1.45,.05-2.95-.41-4.49-1.36v8.83l-2.49-.89V27.25c.41-.5,.94-.93,1.57-1.3,1.48-.86,3.28-1.31,5.4-1.33l.04,.03c1.94-.02,3.43,.77,4.48,2.38,.98,1.48,1.47,3.38,1.47,5.7Z"/><path class="h" d="M68.14,38.53c0,2.77-.28,4.69-.83,5.76-.56,1.07-1.62,1.92-3.19,2.56-1.27,.5-2.65,.77-4.13,.82l-.41-1.57c1.5-.2,2.56-.41,3.17-.61,1.21-.41,2.04-1.04,2.49-1.88,.36-.68,.54-1.99,.54-3.92v-.65c-1.7,.77-3.49,1.16-5.35,1.16-1.23,0-2.31-.39-3.24-1.16-1.05-.84-1.57-1.91-1.57-3.21v-10.37l2.49-.85v10.44c0,1.11,.36,1.97,1.08,2.57,.72,.6,1.65,.89,2.79,.87,1.14-.02,2.36-.47,3.67-1.33v-12.17h2.49v13.54Z"/><path class="h" d="M77.86,40.13c-.3,.02-.57,.04-.82,.04-1.41,0-2.51-.33-3.29-1.01-.78-.67-1.18-1.6-1.18-2.79v-9.81h-1.71v-1.57h1.71v-4.16l2.49-.89v5.05h2.8v1.57h-2.8v9.74c0,.93,.25,1.6,.75,1.98,.43,.32,1.11,.5,2.05,.55v1.3h0Z"/><path class="h" d="M92.94,39.93h-2.49v-9.61c0-.98-.23-1.82-.68-2.52-.53-.79-1.26-1.19-2.19-1.19-1.14,0-2.57,.6-4.28,1.81v11.52h-2.49V16.95l2.49-.78v10.47c1.59-1.16,3.33-1.74,5.22-1.74,1.32,0,2.39,.44,3.21,1.33,.82,.89,1.23,1.99,1.23,3.31v10.4Z"/><path class="h" d="M106.18,32.17c0-1.56-.3-2.86-.89-3.88-.7-1.24-1.8-1.9-3.27-1.97-2.73,.16-4.09,2.11-4.09,5.86,0,1.72,.28,3.15,.86,4.31,.73,1.47,1.83,2.19,3.29,2.17,2.74-.02,4.11-2.18,4.11-6.49Zm2.73,.02c0,2.23-.57,4.08-1.71,5.56-1.25,1.66-2.98,2.49-5.18,2.49s-3.89-.83-5.12-2.49c-1.11-1.48-1.67-3.33-1.67-5.56,0-2.09,.6-3.85,1.81-5.29,1.27-1.52,2.94-2.28,5.01-2.28s3.75,.76,5.05,2.28c1.21,1.43,1.81,3.19,1.81,5.29Z"/><path class="h" d="M123.19,39.93h-2.49v-10.16c0-1.11-.33-1.98-1.01-2.61-.67-.62-1.56-.93-2.68-.9-1.18,.02-2.31,.41-3.38,1.16v12.51h-2.49v-12.82c1.43-1.04,2.75-1.73,3.96-2.04,1.14-.3,2.14-.44,3-.44,.59,0,1.15,.06,1.67,.17,.98,.23,1.77,.65,2.39,1.26,.68,.68,1.03,1.5,1.03,2.46v11.42h0Z"/><path class="f" d="M15.35,17.04c-1.28,0-2.51,.12-3.58,.31-3.17,.56-3.75,1.73-3.75,3.9v2.86h7.5v.95H5.21c-2.18,0-4.09,1.31-4.68,3.8-.69,2.86-.72,4.64,0,7.62,.53,2.22,1.8,3.8,3.98,3.8h2.58v-3.42c0-2.47,2.14-4.66,4.68-4.66h7.49c2.08,0,3.75-1.72,3.75-3.81v-7.14c0-2.03-1.71-3.56-3.75-3.9-1.29-.21-2.62-.31-3.9-.31Zm-4.05,2.3c.77,0,1.41,.64,1.41,1.43s-.63,1.42-1.41,1.42-1.41-.64-1.41-1.42c0-.79,.63-1.43,1.41-1.43Z"/><path class="e" d="M23.94,25.05v3.33c0,2.58-2.19,4.75-4.68,4.75h-7.49c-2.05,0-3.75,1.76-3.75,3.81v7.14c0,2.03,1.77,3.23,3.75,3.81,2.37,.7,4.65,.82,7.49,0,1.89-.55,3.75-1.65,3.75-3.81v-2.86h-7.49v-.95h11.24c2.18,0,2.99-1.52,3.75-3.8,.78-2.35,.75-4.61,0-7.62-.54-2.17-1.57-3.8-3.75-3.8h-2.81Zm-4.21,18.08c.78,0,1.41,.64,1.41,1.42s-.63,1.43-1.41,1.43-1.41-.64-1.41-1.43,.63-1.42,1.41-1.42Z"/><path class="i" d="M25.65,52.74c0,1.07-4.5,1.95-10.05,1.95s-10.05-.87-10.05-1.95,4.5-1.95,10.05-1.95,10.05,.87,10.05,1.95Z"/><text class="n" transform="translate(37.98 10.04)"><tspan class="k" x="0" y="0">P</tspan><tspan class="l" x="6.08" y="0">o</tspan><tspan class="g" x="12.59" y="0">w</tspan><tspan x="21.3" y="0">e</tspan><tspan class="m" x="27.31" y="0">r</tspan><tspan x="31.12" y="0">ed </tspan><tspan class="l" x="46.44" y="0">b</tspan><tspan class="j" x="53.18" y="0">y</tspan></text></svg>